<svg xmlns="http://www.w3.org/2000/svg" width="3000" height="1000" viewBox="0 0 3000 1000"><circle cx="1147.494" cy="500" r="477.563" fill="#fabc14"/><path stroke-miterlimit="10" d="M2043.916 147.837v617.919l-495-620.699v729.28h-805V147.985l-283.964 404.04-281.036-404.04v617.852" fill="none" stroke="#000" stroke-width="47" stroke-linecap="round" stroke-linejoin="round"/><path d="M2216.022 751.566l279.26-605.216c6.537-14.009 15.877-23.349 32.688-23.349h1.868c16.812 0 26.151 9.34 32.688 23.349l278.325 603.348c2.802 5.604 3.735 10.273 3.735 14.943 0 12.142-10.273 22.416-23.349 22.416-11.208 0-19.614-8.406-24.284-18.68l-76.586-168.116h-385.73l-76.587 169.05c-4.67 11.208-12.142 17.746-23.35 17.746-12.142 0-22.415-9.34-22.415-20.548 0-3.736.936-9.34 3.737-14.943zm483.8-195.202L2527.97 178.105l-172.785 378.259z"/></svg>